<svg xmlns="http://www.w3.org/2000/svg" width="512" height="512"><path d="M0 0h512v512H0V0z" fill="#171A2B"/><path d="M176 115l125 1v2l3-.188c4.68.22 7.684 1.338 12 3.188l2.941 1.113c6.829 2.786 11.538 6.009 16.809 11.2 4.943 4.858 7.994 7.179 15.25 6.687l-2 4c.155 3.642.553 5.47 2.922 8.277 2.35 3.079 3.185 5.628 4.203 9.348 1.013 3.66 1.759 6.2 3.875 9.375 1.307 9.034.788 17.736.125 26.813l-.277 4.177c-.725 10.53-.725 10.53-1.696 14.321L358 219l5 2v1c-6 0-6 0-8-1-3.118 4.646-3.118 4.646-4 9l5 1-1 4-3.875-.75L347 234l-2 4-3 1-1 4c-3 2-3 2-6 2l-2 4-3 1c.476 4.294.476 4.294 4 5l2 5 5 1c1.688 3.5 1.688 3.5 3 7l2 1v3l5 1 1-3h5a450.204 450.204 0 01-1.75 6.813c-.444 5.659 1.84 9.278 5.75 13.187l2.563 4.625c1.872 4.327 1.872 4.327 4.437 5.375.125 3.563.125 3.563 0 7h-5l-1 6 4-2c1.348 5.39-.124 6.292-4 10h-5v-3h-8c1.465-5.862 4.534-5.33 10-7 1.35-2.702 1.339-5.118 1.563-8.125L361 297h-3l.188 4.25C358 306 358 306 355 310l-2-1 2-3-2.482.474c-7.134 1.067-14.38 1.045-21.58 1.276l-4.995.207-4.79.152-4.376.156C313 308 313 308 308 305v-2l-3-1c-4-4-4-4-4-6l-4-1c-8.885-6.109-13.234-12.467-18-22l-4-1c-2.757-3.447-4.842-6.627-6.569-10.695-3.528-4.796-6.018-4.14-11.833-4.059l-5.635.041-5.9.15-5.89.045c-10.322-.048-10.322-.048-20.173 2.518-3.223 9.085-2.325 19.364-2.303 28.893-.191 12.825-.191 12.825-5.697 17.107-6.25 1.563-12.518 1.35-18.938 1.438l-4.154.138-3.998.045-3.652.076c-4.85-1.037-5.896-2.306-8.258-6.697-.715-5.086-.652-10.121-.594-15.25v-4.505c.005-3.14.023-6.28.052-9.42.042-4.807.041-9.612.034-14.419.01-3.052.024-6.104.04-9.156v-4.356l.048-4.066.026-3.565c.5-4.137 1.45-8.29 5.394-10.263l1-4a150.052 150.052 0 016-4l2-3c-4.535 1.134-5.9 2.642-9 6-1.498-2.996-.905-4.832 0-8 5.579-3.347 7.942-3.41 14.33-3.508l5.795-.111 6.266-.076a4594.082 4594.082 0 0123.394-.38c9.031-.13 18.063-.287 27.094-.443 3.147-.051 6.294-.097 9.44-.14l5.834-.092 5.116-.074c4.621-.172 9.143-.604 13.731-1.176-3 3-3 3-5 3v3c8.897-1.919 13.129-7.693 18-15 .8-12.146-2.516-17.887-12-25-3.399-1.133-6.04-1.152-9.626-1.19l-4.176-.05-4.553-.041-4.735-.056c-5.032-.059-10.065-.111-15.098-.163-19.02-.2-38.037-.41-57.05-.969l-4.095-.113c-9.303-.297-9.303-.297-12.667-1.418h-3c-4.208-3.943-4.504-7.046-4.496-12.672l-.002-4.45.06-4.628-.021-4.676c.048-8.461.048-8.461.459-11.574l3-1 2-3-3-1v2l-4 2c-2.018 6.493-2.27 12.671-2.25 19.438l-.016 5.308c.377 7.446 1.866 14.226 4.266 21.254v3h3l1 3c-6.513-1.303-9.398-4.398-14-9-.44-9.68-.44-9.68 1-14l-9-1v-1h10c-.882-2.354-.882-2.354-4-3a152.61 152.61 0 01-.313-12.375l-.01-3.523c.056-8.702.056-8.702 2.323-12.102l3-1 1-2h2l2-4c3-2 3-2 8-2v-2z" fill="#A1A5C3"/><path d="M98 331l3 3a758.29 758.29 0 0010 3c5 3 5 3 5 6l4 2c2 2 2 2 2 8l4.813-2.938c6.352-3.877 10.666-4.16 18.187-4.062v2l5 1c3.313 2.563 3.313 2.563 6 5l-.063-3.438C156 347 156 347 157 346c10.082-.712 10.082-.712 13.5 1.938 2.357 4.812 4.5 9.644 4.5 15.062h2l.5-5.688c1.089-6.586 3.19-8.714 9.5-11.312 6 0 6 0 8 1 5.666.421 5.666.421 11-1a485.96 485.96 0 0111 0v3h6c4.195 4.195 3.003 6.367 2 12l-2 4 2 4 .586-2.773.789-3.602.773-3.586C228 356 228 356 230 354h4l1-3c9.299-2.273 19.271-1.928 28 2v3l4-1 1-5h3v-2c.915.095 1.83.19 2.773.29 1.189.11 2.377.22 3.602.335l3.586.352c3.152.385 3.152.385 5.039-1.977 5.412-.992 10.935-1.685 15.379 1.941 5.629 7.322 5.75 12.26 5.683 21.184l-.013 3.441c-.012 2.812-.03 5.623-.049 8.434l1.285-3.953C310 374 310 374 313.437 373.25 317 374 317 374 321 378c1.483-8.167 1.31-16.498 1.43-24.773.396-15.483.396-15.483 6.172-18.657 4.309-.723 8.405-.758 12.773-.695l4.898.055L350 334v2h6c3.658 2.04 5.67 3.504 8 7l3 1c.688 3.063.688 3.063 1 6h2l1 5c3.524-2.546 3.524-2.546 6-6l5-1v-2c2.249-.108 4.5-.186 6.75-.25l3.797-.14C396 346 396 346 400 350c3.971 1.6 3.971 1.6 6-1 7.458-1.865 12.4-2.6 18 3 1.712 3.424 1.623 7.231 2 11 1.512-3.436 2.933-6.773 4-10.375 1-2.625 1-2.625 4-3.625l1-3h6v2l5-1c4.977 8.295 1.887 16.124-1 25l-4 4a311.892 311.892 0 00-3 8l-3 4-1 4c-5.056 2.528-11.492 2.068-16-1.125-3.789-5.446-5-8.032-5-14.875l-4 1c-.764 3.857-.764 3.857-1 8-1.535 6.138-5.394 6.616-11 9-10.135 2.303-17.873-.604-24.875-8.063C370 383 370 383 370 380h-4l-2 4-4 2-3 3c-3.025 1.513-5.828 1.11-9.195 1.098l-4.356-.01-4.574-.026-4.598-.013c-3.759-.012-7.518-.028-11.277-.049v-2l-5 3c-3.666.042-7.334.042-11 0l-5 2c-8.43.57-8.43.57-12-3-1.142-4.569-1.096-8.543-1.063-13.25l.028-4.953L289 368h-3l-.184 2.781c-.255 3.741-.535 7.48-.816 11.219l-.313 4.688C284 390 284 390 280 393c-6.243.528-8.506.296-14-3l-1-5-1.938 2.188c-8.79 8.072-14.914 8.302-26.062 5.812v-3l-5-1-1-3c-5.302 1.458-9.37 4.087-14 7-3.878.97-7.08 1.2-11.063 1.25l-3.722.078C199 394 199 394 196 391l-2.688-2.313C191 386 191 386 191 380l4-2c.819-3.562.819-3.562 1-7-6.876 4.011-8.39 11.857-9.813 19.188-2.143 6.881-7.621 12.839-14.187 15.812-6.268.734-10.768.924-16-3-1.444-8.111-1.444-8.111 0-11l-2 1c-3.579.289-7.164.506-10.75.688l-5.922.324c-4.573-.01-7.196-.362-11.328-2.012-3.835.165-3.835.165-7 2-8.423.62-11.018-.876-16.625-6.75-2.193-2.594-2.193-2.594-5.375-2.25l-2 4c-4.258 5.677-7.242 4.795-14 4-3.406-3.406-2.416-7.917-2.563-12.563.353-6.021.353-6.021-1.437-11.437-.155-4.384-.232-8.74-.25-13.125l-.063-3.71C76.623 337.026 76.623 337.026 85 332c3.078-.258 3.078-.258 6.25-.125 5.308.808 5.308.808 6.75-.875z" fill="#39497C"/><path d="M176 115l125 1v2l3-.188c4.68.22 7.684 1.338 12 3.188l2.941 1.113c6.829 2.786 11.538 6.009 16.809 11.2 4.943 4.858 7.994 7.179 15.25 6.687l-2 4c.155 3.642.553 5.47 2.922 8.277 2.35 3.079 3.185 5.628 4.203 9.348 1.013 3.66 1.759 6.2 3.875 9.375 1.307 9.034.788 17.736.125 26.813l-.277 4.177c-.725 10.53-.725 10.53-1.696 14.321L358 219l5 2v1c-6 0-6 0-8-1-3.118 4.646-3.118 4.646-4 9l5 1-1 4-3.875-.75L347 234l-2 4-3 1-1 4c-3 2-3 2-6 2l-2 4-3 1c.476 4.294.476 4.294 4 5l2 5 5 1c1.688 3.5 1.688 3.5 3 7l2 1v3l5 1 1-3h5a450.204 450.204 0 01-1.75 6.813c-.444 5.659 1.84 9.278 5.75 13.187l2.563 4.625c1.872 4.327 1.872 4.327 4.437 5.375.125 3.563.125 3.563 0 7h-5l-1 6 4-2c1.348 5.39-.124 6.292-4 10h-5v-3h-8c1.465-5.862 4.534-5.33 10-7 1.35-2.702 1.339-5.118 1.563-8.125L361 297h-3l.188 4.25C358 306 358 306 355 310l-2-1 2-3-2.482.474c-7.134 1.067-14.38 1.045-21.58 1.276l-4.995.207-4.79.152-4.376.156C313 308 313 308 308 305v-2l-3-1c-4-4-4-4-4-6l-4-1c-8.885-6.109-13.234-12.467-18-22l-4-1c-2.757-3.447-4.842-6.627-6.569-10.695-3.528-4.796-6.018-4.14-11.833-4.059l-5.635.041-5.9.15-5.89.045c-10.322-.048-10.322-.048-20.173 2.518-3.223 9.085-2.325 19.364-2.303 28.893-.191 12.825-.191 12.825-5.697 17.107-6.25 1.563-12.518 1.35-18.938 1.438l-4.154.138-3.998.045-3.652.076c-4.85-1.037-5.896-2.306-8.258-6.697-.715-5.086-.652-10.121-.594-15.25v-4.505c.005-3.14.023-6.28.052-9.42.042-4.807.041-9.612.034-14.419.01-3.052.024-6.104.04-9.156v-4.356l.048-4.066.026-3.565c.5-4.137 1.45-8.29 5.394-10.263l1-4a150.052 150.052 0 016-4l2-3c-4.535 1.134-5.9 2.642-9 6-1.498-2.996-.905-4.832 0-8 5.579-3.347 7.942-3.41 14.33-3.508l5.795-.111 6.266-.076a4594.082 4594.082 0 0123.394-.38c9.031-.13 18.063-.287 27.094-.443 3.147-.051 6.294-.097 9.44-.14l5.834-.092 5.116-.074c4.621-.172 9.143-.604 13.731-1.176-3 3-3 3-5 3v3c8.897-1.919 13.129-7.693 18-15 .8-12.146-2.516-17.887-12-25-3.399-1.133-6.04-1.152-9.626-1.19l-4.176-.05-4.553-.041-4.735-.056c-5.032-.059-10.065-.111-15.098-.163-19.02-.2-38.037-.41-57.05-.969l-4.095-.113c-9.303-.297-9.303-.297-12.667-1.418h-3c-4.208-3.943-4.504-7.046-4.496-12.672l-.002-4.45.06-4.628-.021-4.676c.048-8.461.048-8.461.459-11.574l3-1 2-3-3-1v2l-4 2c-2.018 6.493-2.27 12.671-2.25 19.438l-.016 5.308c.377 7.446 1.866 14.226 4.266 21.254v3h3l1 3c-6.513-1.303-9.398-4.398-14-9-.44-9.68-.44-9.68 1-14l-9-1v-1h10c-.882-2.354-.882-2.354-4-3a152.61 152.61 0 01-.313-12.375l-.01-3.523c.056-8.702.056-8.702 2.323-12.102l3-1 1-2h2l2-4c3-2 3-2 8-2v-2zm-2.375 19.813c-1.174 9.747-2.361 20.893 1.375 30.187 11.951 5.976 30.059 3.107 43.164 3.07 4.007.009 8.013.02 12.02.032 6.25.018 12.5.026 18.75-.002 4.113-.019 8.226-.018 12.34.003 3.853.02 7.707.013 11.56-.023 10.07.094 15.43.21 22.166 7.92h4v2l2 1c2.71 4.445 3.432 7.886 3.438 13.063l.058 3.597c-.59 3.97-1.832 5.407-4.496 8.34l-3 5a149.774 149.774 0 01-7 4l-3 3c-3.137.73-3.137.73-6.688 1.188l-3.574.48L274 218v-2h-51v2l-2.982-.048a2501.25 2501.25 0 00-13.33-.14l-4.694-.076-4.482-.029-4.142-.048c-5.151.521-6.134 2.868-8.37 7.341h2c-2.506 4.177-4.645 6.645-8 10-1.208 3.624-1.13 6.581-1.133 10.406l-.004 4.442.012 4.652-.012 4.652.004 4.442.004 4.084C177.845 271 177.845 271 179 274c.317 5.144.512 10.288.719 15.438.073 4.365.073 4.365 1.281 7.562 3.518.141 3.518.141 7.563-.312l4.19-.364L196 296v-2h6c4.744-3.163 4.142-6.46 4.246-11.82l.1-4.059c.061-2.838.118-5.677.172-8.516l.103-4.05.076-3.735C207 259 207 259 209 258l3-5a422.845 422.845 0 017-5v-2l3.437.016c5.167.02 10.334.034 15.5.047l5.409.025 5.244.01 4.808.016c4.588-.114 9.05-.54 13.602-1.114v2l2.625 1.188c4.16 2.234 6.383 5.208 9.375 8.812h2v3h3l2 4a150.46 150.46 0 005 9h3v4h2l1 5h5v6c2.9 1.742 2.9 1.742 6 3l1 3h6v2l5.082-.14c2.244-.038 4.487-.075 6.73-.11l3.334-.102c7.903-.093 13.536 1.404 20.854 4.352h4c-.456-4.907-1.746-7.339-5-11l-1-2h-2l-1-4a1041.46 1041.46 0 00-6-7l-4-7h-2l-2-4a282.478 282.478 0 00-5-5l-2.188-2.812c-1.551-2.445-1.551-2.445-3.812-2.188a140.266 140.266 0 01-2-7l-1-2h-2v-3a100.38 100.38 0 016-2c5.654-2.793 5.654-2.793 8-8h3l2-3h2c2.84-3.675 4-5.269 4-10l4-2c2.15-3.796 3.522-7.902 5-12l1.813-4.937c2.775-10.834 3.123-23.952-1.813-34.063l-1-4.687c-.746-4.535-.746-4.535-4-8.313h-2v-6c-3.293-4.236-3.293-4.236-6-4v-2l-5-3-2.313-2.375c-7.58-7.403-13.505-8.323-23.687-7.625v-2h-3v-3a8713.34 8713.34 0 00-47.41-.363c-7.338-.036-14.675-.086-22.013-.165-7.08-.076-14.16-.118-21.242-.136a883.03 883.03 0 01-8.107-.076c-3.783-.05-7.564-.058-11.348-.055l-3.391-.076c-9.063.084-12.834 3.281-15.864 11.684z" fill="#726D8D"/><path d="M177 214c1 3 1 3 1 5l4-4h4c-2 4-2 4-6 7h-2l-1 5-3 3c-1.122 3.367-1.148 5.953-1.177 9.503l-.039 4.076-.022 4.413-.025 4.525c-.014 3.163-.024 6.325-.032 9.487-.017 4.844-.061 9.687-.105 14.531-.01 3.07-.019 6.138-.026 9.207l-.053 4.4.009 4.096-.018 3.6c.59 3.82 1.742 5.482 4.488 8.162 3.195.72 3.195.72 6.777.559l3.994-.022 4.167-.1 4.154-.017c10.838.199 10.838.199 18.908-6.42.472-3.238.472-3.238.441-6.855l.08-4.077.042-4.255c.284-22.66.284-22.66 4.437-26.813 8.079-2.02 16.71-1.315 25-1.375l5.914-.113 5.649-.035 5.19-.06c7.028.965 8.443 5.593 11.247 11.583 1.584 4.434 1.584 4.434 6 5 3.407 4.171 6.227 8.38 9 13 3.55 4.97 7.532 7.266 13 10v2l4 2 4 5c4.954 2.477 8.052 2.143 13.578 1.977l5.703-.157 5.969-.195c2.005-.058 4.01-.116 6.016-.172 4.911-.142 9.823-.293 14.734-.453v3c2.626-3.939 2.595-7.343 3-12h3c.25 11.625.25 11.625-2 15-5 2-5 2-9 2l-1 4 10-1-2 4 3 1h-4v-3h-5v3c-6.156.05-12.313.086-18.47.11-2.092.01-4.185.024-6.279.04-3.013.025-6.027.035-9.04.045l-5.49.032c-8.628-.415-11.024-2.06-15.795-9.36-4.618-6.875-10.047-13.054-15.926-18.867-3.434-3.802-6.644-7.452-9.438-11.75-3.064-3.886-6.129-5.181-10.562-7.25l-1-3c-3.462-.292-3.462-.292-7.625-.063-8.301.3-16.186-.717-24.375-1.937l.016 3.15c.02 4.7.034 9.4.047 14.1l.025 4.957.01 4.746.016 4.38C227 305 227 305 226 309h-3c-.73 1.977-1.394 3.98-2 6l-2 2-3-1v2l-10 2v2h6v1h-7v-2h-2v-2c-3.667.115-7.333.241-11 .375-1.03.03-2.06.062-3.121.094-5.904.225-11.188.996-16.879 2.531-7.106 0-10.588-3.043-14-9-1.16-6.801-.94-13.435-.688-20.313l.073-5.556c.262-13.424.262-13.424 2.615-18.131.198-2.583.286-5.175.309-7.766l.076-4.636c.035-3.216.066-6.433.094-9.649l.08-4.652.04-4.24c.705-7.137 3.034-12.284 7.963-17.432l2.38-2.523C174.958 214 174.958 214 177 214z" fill="#4C417B"/><path d="M98 331l3 3a758.29 758.29 0 0010 3c5 3 5 3 5 6l4 2c2 2 2 2 2 8l4.813-2.938c6.352-3.877 10.666-4.16 18.187-4.062v2l5 1c2.313 2.563 2.313 2.563 4 5a816.68 816.68 0 01-7-1.375l-3.938-.773L140 351v-2c-6.492.01-6.492.01-10 5l-4 2c1.497 4.403 1.497 4.403 5.188 4.32l3.812-.195c6.804-.32 6.804-.32 9 1.875v4l-4.05.48-5.262.707-5.239.668c-4.996.73-4.996.73-7.449 6.145-.732 5.123-.546 7.215 2.438 11.5 5.71 4.007 10.254 3.352 16.624 1L144 385l1 3h11v-32c4 1 4 1 6 5l1 5.75 1 5.25h2c2.041 5.73 3.636 10.891 3 17-2.861 2.861-5.098 2.145-9 2-1.261 5.313-1.261 5.313 0 10 6.936.621 10.33.293 15-5 3.338-5.586 6.08-11.149 8.625-17.125C186 374 186 374 190 373c.822-3.016.822-3.016 1-6l4 1c-1 4-1 4-4 7-2.028 5.1-3.768 9.805-4.813 15.188-2.143 6.881-7.621 12.839-14.187 15.812-6.268.734-10.768.924-16-3-1.444-8.111-1.444-8.111 0-11l-2 1c-3.579.289-7.164.506-10.75.688l-5.922.324c-4.573-.01-7.196-.362-11.328-2.012-3.835.165-3.835.165-7 2-8.423.62-11.018-.876-16.625-6.75-2.193-2.594-2.193-2.594-5.375-2.25l-2 4c-4.258 5.677-7.242 4.795-14 4-3.406-3.406-2.416-7.917-2.563-12.563.353-6.021.353-6.021-1.437-11.437-.155-4.384-.232-8.74-.25-13.125l-.063-3.71C76.623 337.026 76.623 337.026 85 332c3.078-.258 3.078-.258 6.25-.125 5.308.808 5.308.808 6.75-.875z" fill="#263576"/><path d="M187 220l-1 4 1 4a211.329 211.329 0 01-6 5c-1.956 4.89-2.246 7.455-2.23 12.602l.005 4.421.037 4.602.002 4.625c-.198 7.49-.198 7.49 1.186 14.75a515 515 0 01.563 11.688l.13 3.283c.106 2.676.207 5.352.307 8.029l5-1c3.333-.04 6.667-.044 10 0v-2l3.938-.938c4.35-.531 4.35-.531 5.062-4.062.116-2.272.179-4.546.21-6.82l.087-4.059c.052-2.838.096-5.677.133-8.516l.093-4.05.06-3.735L206 259l3-1 1-4a250.019 250.019 0 018-6l1-2c10.624-1.11 21.203-1.122 31.875-1.063l4.723.014c3.8.012 7.601.028 11.402.049v2l5 1c7 6.311 7 6.311 7 9h2v3h3c2.516 3.925 4.913 7.826 7 12l3 1v4h2l1 4 5 1 .438 2.875c.784 4.36 2.708 4.403 6.562 6.125v3h6v2l3.5-.5c11.89-1.081 21.421-1.165 32.5 3.5h4c3 2 3 2 2.938 5.5C357 308 357 308 353 310l2-4-2.482.474c-7.134 1.067-14.38 1.045-21.58 1.276l-4.995.207-4.79.152-4.376.156C313 308 313 308 308 305v-2l-3-1c-4-4-4-4-4-6l-4-1c-8.885-6.109-13.234-12.467-18-22l-4-1c-2.757-3.447-4.842-6.627-6.569-10.695-3.528-4.796-6.018-4.14-11.833-4.059l-5.635.041-5.9.15-5.89.045c-10.322-.048-10.322-.048-20.173 2.518-3.223 9.085-2.325 19.364-2.303 28.893-.191 12.825-.191 12.825-5.697 17.107-6.25 1.563-12.518 1.35-18.938 1.438l-4.154.138-3.998.045-3.652.076c-4.85-1.037-5.896-2.306-8.258-6.697-.715-5.086-.652-10.121-.594-15.25v-4.505c.005-3.14.023-6.28.052-9.42.042-4.807.041-9.612.034-14.419.01-3.052.024-6.104.04-9.156v-4.356l.048-4.066.026-3.565c.5-4.137 1.45-8.29 5.394-10.263l1-4c3.177-1.382 5.531-2 9-2z" fill="#2C91DD"/><path d="M172 126l4 1c-3 4-3 4-6 4 .08 5.438.193 10.875.313 16.313l.068 4.693.107 4.482.08 4.142c.122 3.671.122 3.671 3.432 6.37v2l5-1 1 1c4.553.24 9.091.413 13.648.54l4.317.126c11.045.303 22.088.45 33.137.545l4.85.043c6.579.058 13.158.113 19.737.147 4.888.028 9.775.074 14.663.122l4.507.01 4.175.05 3.65.025c5.393.638 8.512 2.588 12.316 6.392v2l4 2c3.296 5.65 3.717 10.547 3 17-2.75 4.313-2.75 4.313-6 8l-2.187 2.875C290.167 213.148 288.917 213 283 213v-3l4-2-1-2 4-3c1.368-6.383 1.446-8.257-2-14-5.064-2.532-8.7-2.318-14.368-2.41l-3.194-.06c-3.484-.064-6.969-.113-10.454-.163l-7.247-.126c-6.358-.11-12.717-.209-19.076-.305-6.489-.1-12.977-.212-19.466-.323-12.731-.215-25.463-.418-38.195-.613v-2l-4-1 1-3h-3v-3l-2-1-1-5-1.047-4.652c-.966-5.42-1.22-10.41-1.203-15.91l-.016-5.317c.649-12.504.649-12.504 4.266-16.121h3v-2z" fill="#221550"/><path d="M424 352c1.712 3.424 1.623 7.231 2 11l1.313-3.188c3.676-8.307 3.676-8.307 6.687-9.812 3.338.285 6.672.616 10 1-.54 6.217-2.585 11.272-5 17a288.856 288.856 0 00-7 19c-1 2-1 2-5.938 2.188C421 389 421 389 419 388l-1.438-4.875c-1.137-5.17-1.137-5.17-4.562-8.125v-2h-5v2l-4 2 1.063 2.813C406 383 406 383 405 386c-3.07.652-3.07.652-7 1l-3.867.379c-10.118.463-14.501-.584-21.133-8.379-2.376-7.127-1.674-14.5 2-21l2-1 1.602-3.531c3.3-4.774 5.136-4.244 10.773-3.969l4.46.156c4.165.344 4.165.344 7.58 1 2.745.714 2.745.714 4.585-1.656 7.458-1.865 12.4-2.6 18 3z" fill="#475B92"/><path d="M245 256.438l5.914-.073 5.649.006 5.19-.002c7.01 1.042 8.44 5.635 11.247 11.631 1.584 4.434 1.584 4.434 6 5 3.407 4.171 6.227 8.38 9 13 3.55 4.97 7.532 7.266 13 10v2l4 2 4 5c4.954 2.477 8.052 2.143 13.578 1.977l5.703-.157 5.969-.195c2.005-.058 4.01-.116 6.016-.172 4.911-.142 9.823-.293 14.734-.453v3c2.626-3.939 2.595-7.343 3-12h3c.25 11.625.25 11.625-2 15-5 2-5 2-9 2l-1 4 10-1-2 4 3 1h-4v-3h-5v3c-6.156.05-12.313.086-18.47.11-2.092.01-4.185.024-6.279.04-3.013.025-6.027.035-9.04.045l-5.49.032c-8.628-.415-11.024-2.06-15.795-9.36-4.618-6.875-10.047-13.054-15.926-18.867-3.434-3.802-6.644-7.452-9.438-11.75-3.064-3.886-6.129-5.181-10.562-7.25l-1-3c-3.462-.292-3.462-.292-7.625-.063-8.6.31-15.442-.746-24.375-1.937v35h-1v-36l33-1v-2l-2.727.035c-8.405.06-16.808-.039-25.21-.285l-5.715-.14L221 265c-3.05-12.196 16.64-8.604 24-8.563z" fill="#0E0E4D"/><path d="M192.88 123.205l3.609-.003c3.929.005 7.856.06 11.784.114 2.727.013 5.454.023 8.18.03 7.172.027 14.342.096 21.514.173 7.32.072 14.639.104 21.959.14 14.358.074 28.716.194 43.074.341v3h3v2l2.563-.176c10.715-.426 15.986 2.524 23.437 10.176l5 3v2l4 2c2.743 2.743 2.853 5.16 3.625 8.937.26 1.247.52 2.494.79 3.778C346 162 346 162 346 165h-2a871.47 871.47 0 01-3.516-7.195C334.84 147.138 325.078 137.415 313 135c-3.004-.988-6.004-1.987-9-3-5.911-1.478-11.769-.81-17.812-.563a861.624 861.624 0 01-34.57.563l-3.757-.011c-6.254-.023-12.507-.061-18.76-.114l-6.972-.035-3.272-.041c-5.754-.146-5.754-.146-10.857 2.201a222.1 222.1 0 01-11.687.125l-3.284-.027c-2.676-.024-5.353-.06-8.029-.098v-4c-3.553.463-3.553.463-7 2-.88 3.085-.88 3.085-.465 6.758l.205 4.082.323 4.285.24 4.309c.2 3.525.435 7.045.697 10.566 20.284 1.428 40.626 1.34 60.95 1.552 4.859.052 9.718.11 14.577.167l4.47.04c21.546.258 21.546.258 29.003 3.241v1c-11.554.023-23.108.041-34.662.052-5.367.005-10.734.012-16.1.023-5.194.011-10.388.017-15.582.02-2.914.003-5.828.01-8.742.018-32.056.002-32.056.002-38.914-4.113-3.258-10.728-2.661-27.237 3.343-36.689 4.964-4.494 9.168-4.249 15.537-4.106z" fill="#B4D2ED"/><path d="M326 340c29.786 0 29.786 0 40 11 2.444 9.775 3.154 21.395-2.063 30.125-8.301 6.062-14.902 6.265-24.875 6.063L326 387v-47z" fill="#D7DEF3"/><path d="M341.375 333.875l4.898.055L350 334v2h6c3.658 2.04 5.67 3.504 8 7l3 1c.688 3.063.688 3.063 1 6h2l1 5c3.524-2.546 3.524-2.546 6-6l5-1v-2c2.249-.108 4.5-.186 6.75-.25l3.797-.14C396 346 396 346 400 350c-4.289 2.144-10.496.313-15.156-.137-4.302-.41-4.302-.41-5.844 4.137-2 4-2 4-5 7-2.266 9.066-1.813 15.645 4.445 22.793 5.028 3.122 9.714 2.748 15.43 2.52l3.242-.069c2.628-.059 5.256-.148 7.883-.244.085-2.665.082-5.335 0-8l-2-1c2-2 2-2 5-2v-2h5l1 4 3 1c2 5 2 5 2 10 6.028 1.3 6.028 1.3 12 1 1.882-4.126 1.882-4.126 2.3-7.496.836-4.188 2.407-7.632 4.2-11.504 2.836-6.284 4.917-12.297 6.5-19-7.392-.562-7.392-.562-14 2l2-4h2l1-3h6v2l5-1c4.977 8.295 1.887 16.124-1 25l-4 4a311.892 311.892 0 00-3 8l-3 4-1 4c-5.056 2.528-11.492 2.068-16-1.125-3.789-5.446-5-8.032-5-14.875l-4 1c-.764 3.857-.764 3.857-1 8-1.535 6.138-5.394 6.616-11 9-10.135 2.303-17.873-.604-24.875-8.063C370 383 370 383 370 380h-4l-2 4-4 2-3 3c-3.025 1.513-5.828 1.11-9.195 1.098l-4.356-.01-4.574-.026-4.598-.013c-3.759-.012-7.518-.028-11.277-.049v-2l-3.027.035c-1.29.01-2.581.018-3.91.027l-3.903.036C309 388 309 388 308 387c-.226-5.192-.35-8.299 2-13 5.844-.866 6.633-.367 11 4 1.483-8.167 1.31-16.498 1.43-24.773.396-15.483.396-15.483 6.172-18.657 4.309-.723 8.405-.758 12.773-.695zM326 340v47l13 .25 4.05.11c10.585.099 17.91-2.02 23.95-11.36.798-5.158.798-5.158.5-10.625-.03-1.828-.062-3.656-.094-5.54-.738-8.79-4.127-13.338-12.09-17.105C344.975 339.002 337.865 340 326 340z" fill="#3B4D83"/><path d="M244.313 249.938l5.943-.006 5.732.095 5.236.055c9.649 1.855 13.67 9.203 18.776 16.918 2.315 2.02 4.65 4.02 7 6 7 8.04 7 8.04 7 11l4 2 2.313 3.813c5.1 7.946 9.913 9.822 19.199 9.675l5.482-.049 5.693-.127 5.729-.068c4.862-.06 9.723-.15 14.584-.244 4 0 4 0 7 2-.063 3.5-.063 3.5-1 7l-4 2 2-4-2.482.474c-7.134 1.067-14.38 1.045-21.58 1.276l-4.995.207-4.79.152-4.376.156C313 308 313 308 308 305v-2l-3-1c-4-4-4-4-4-6l-4-1c-8.885-6.109-13.234-12.467-18-22l-4-1c-2.757-3.447-4.842-6.627-6.569-10.695-3.528-4.796-6.018-4.14-11.833-4.059l-5.635.041-5.9.15-5.89.045c-10.322-.048-10.322-.048-20.173 2.518-2.74 7.948-2.611 16.66-3 25h-2l-.078 3.465-.172 4.473-.14 4.464L213 301l-4 1v2c-5.58 2.79-10.96 2.29-17.063 2.25l-3.626.023c-8.931-.02-8.931-.02-12.311-2.273v-3l2.706-.076c4.036-.116 8.071-.239 12.106-.361l4.26-.12 4.073-.127 3.76-.11c3.13-.077 3.13-.077 6.095-1.206.383-4.107.383-4.107.23-9.11l-.001-5.663c-.028-3.97-.074-7.938-.141-11.907l.017-5.68-.057-5.233c3.152-14.585 24.041-11.656 35.264-11.47z" fill="#4962DB"/><path d="M80 340c26 0 26 0 34 6 2.881 7.203 2.881 12.797 0 20l-2.75 2.063L109 370c1.964 4.1 1.964 4.1 4.625 8.125C116 382 116 382 116 384h3v3c-12.038.94-12.038.94-15.625-2.563L102 381l-1.688-3.75L99 374c-1.158-3.001-1.158-3.001-8-3v17H80v-48z" fill="#BEC9E1"/><path d="M171 157c4.362 1.454 3.798 3.794 5 8 12.68 4.227 28.945 2.108 42.164 2.07 4.007.009 8.013.02 12.02.032 6.25.018 12.5.026 18.75-.002 4.113-.019 8.226-.018 12.34.003 3.853.02 7.707.013 11.56-.023 10.032.094 15.506.158 22.166 7.92l4 1v2l3 1c2.782 4.392 3.432 7.907 3.438 13.063l.058 3.597c-.59 3.97-1.832 5.407-4.496 8.34l-3 5c-5.297 4-5.297 4-8 4l-1 3c-4.942 2.347-9.61 2.163-15 2v-2h-51v2l-3.197.06c-4.747.095-9.494.205-14.24.315-1.661.03-3.322.062-5.034.094l-4.775.117-4.428.095c-3.448-.144-3.448-.144-4.326 2.319h-5l4-6c-4.535 1.134-5.9 2.642-9 6-1.498-2.996-.905-4.832 0-8 5.579-3.347 7.942-3.41 14.33-3.508l5.795-.111 6.266-.076a4594.082 4594.082 0 0123.394-.38c9.031-.13 18.063-.287 27.094-.443 3.147-.051 6.294-.097 9.44-.14l5.834-.092 5.116-.074c4.621-.172 9.143-.604 13.731-1.176-3 3-3 3-5 3v3c8.897-1.919 13.129-7.693 18-15 .8-12.146-2.516-17.887-12-25-3.399-1.133-6.04-1.152-9.626-1.19l-4.176-.05-4.553-.041-4.735-.056c-5.032-.059-10.065-.111-15.098-.163-19.02-.2-38.037-.41-57.05-.969l-4.095-.113c-9.303-.297-9.303-.297-12.667-1.418h-3c-3.467-4.623-3.28-6.415-3-12z" fill="#71719E"/><path d="M257.063 354.625c6.662 5.387 8.04 10.908 8.937 19.375l-3 3-2 5c-5.695 5.442-12.3 6.834-20 7-6.403-2.561-12.4-6.902-13.457-14.117l-.356-3.758-.394-3.742C227 364 227 364 231 360l2.5-2.625c6.485-6.16 15.597-5.936 23.563-2.75z" fill="#A8B3D6"/><path d="M293 292l8 4v2l4 2 4 5c4.954 2.477 8.052 2.143 13.578 1.977l5.703-.157 5.969-.195c2.005-.058 4.01-.116 6.016-.172 4.911-.142 9.823-.293 14.734-.453v3c2.626-3.939 2.595-7.343 3-12h3c.25 11.625.25 11.625-2 15-5 2-5 2-9 2l-1 4 10-1-2 4 3 1h-4v-3h-5v3c-6.156.05-12.313.086-18.47.11-2.092.01-4.185.024-6.279.04-3.013.025-6.027.035-9.04.045l-5.49.032c-8.625-.415-11.02-2.056-15.791-9.352-2.064-3.074-4.285-5.938-6.618-8.813l-2.199-2.714c-2.25-2.651-2.25-2.651-6.113-5.348l1-3 3 3 3 1 1.813 3.438c2.501 4.074 3.712 4.443 8.187 5.562v2h3l1 4c4.022.826 4.022.826 8 1-3.42-3.842-3.42-3.842-6-5l-3-5-3.625-3.563C294 296 294 296 293 292z" fill="#142384"/><path d="M149 355c5.49 6.856 5.77 12.586 5.813 21l.076 3.504c.058 2.832.088 5.664.111 8.496-9.75.25-9.75.25-12-2l-2.563 1.375c-6.446 3.047-10.757 2.866-16.5-1.375-4.126-5.62-4.064-8.958-1.687-15.375 5.456-5.208 14.496-4.955 21.75-4.625-1.306-5.383-1.306-5.383-5.152-5.383l-3.786.258c-6.754.433-6.754.433-10.062-2.875 3.084-9.253 17.406-7.058 24-3z" fill="#D3DBF1"/><path d="M402 356v2h2c3.632 5.448 3 7.763 3 15h-24c.386 5.35.386 5.35 5 7 5.529.707 5.529.707 7-1 6.517-.483 6.517-.483 10 3v4c-23.018 3.557-23.018 3.557-32-7-2.315-6.946-1.994-14.827 2-21 9.73-7.988 15.923-7.23 27-2z" fill="#C5D1EA"/><path d="M261.519 112.815c5.089-.003 10.177-.021 15.266-.04 3.249-.003 6.498-.005 9.746-.005l4.592-.022 4.207.01 3.697-.005C302 113 302 113 305 115c1.968.465 3.95.874 5.937 1.25 7.078 1.55 12.763 4.182 19.063 7.75v2l5 1 3.062 3.812c4.04 4.297 4.902 4.703 10.25 5.938 5.356 1.462 5.356 1.462 6.868 5.05.507 3.262.507 3.262.82 9.2l1 3h2l.312 4.625c.355 5.122.355 5.122 2.188 8.375 2.115 4.23 2.184 8.328 2.5 13l3.812-.188C372 180 372 180 375 183c1 5 1 5-1 7l-3.938.375c-4.475.204-4.475.204-7.062 4.625-.435 3.35-.502 6.63-.594 10.004C362 208 362 208 359 211c-.133-9.915.23-19.701.977-29.59.043-8.176-2.873-14.94-5.977-22.41l-2-5-2.188-3c-2.3-3.807-1.8-6.023.188-10-1.763-.03-1.763-.03-3.563-.063-5.736-1.212-7.554-3.63-11.437-7.937-6.325-6.456-13.684-8.939-22-12l-5-2c-2.326-.381-4.66-.725-7-1v-2H192v-2a2021.39 2021.39 0 0169.519-1.185z" fill="#374A68"/><path d="M178 117c15.847-.046 31.694-.082 47.542-.104 7.359-.01 14.718-.024 22.077-.047 7.106-.022 14.213-.034 21.319-.039 2.707-.003 5.413-.01 8.12-.021 3.8-.015 7.601-.017 11.402-.016l3.366-.022c11.42.03 20.04 1.782 30.174 7.249l3.398 1.277c4.22 2.019 6.719 4.51 9.977 7.848 5.089 4.883 8.248 7.375 15.625 6.875l-2 4c.155 3.642.553 5.47 2.922 8.277 2.35 3.079 3.185 5.628 4.203 9.348 1.013 3.66 1.759 6.2 3.875 9.375 1.339 9.158.751 17.987.063 27.188l-.303 4.33c-.246 3.494-.5 6.988-.76 10.482h-2c-1.302-9.607-1.303-19.243-1.43-28.922-.578-25.435-9.754-43.746-32.57-56.078-19.51-7.79-40.033-6.855-60.688-6.813-3.48-.014-6.962-.031-10.443-.052-6.834-.04-13.667-.067-20.5-.086-12.086-.047-24.163-.299-36.244-.612l-5.44-.134c-3.895-.097-7.79-.197-11.685-.303v-3z" fill="#C2C8D9"/><path d="M157 352c5.238-.648 5.238-.648 11 0 2.192 3.805 3.18 6.24 4.188 10.375l.86 2.984C175 372.257 175 372.257 175 375c4.807-2.404 6.163-12.782 7.188-17.688C184 353 184 353 188.688 352.375L193 353c-1.124 6.235-3.037 11.455-5.773 17.16-1.238 2.865-2.042 5.627-2.79 8.652-1.313 4.74-2.547 7.335-5.437 11.188l-1.875 3.563c-3.536 5.72-6.077 8.195-12.875 9C160 402 160 402 158 398c.438-3.688.438-3.688 2-7 3.563-.875 3.563-.875 7-1 3.655-3.655.05-13.744-1-18h-2c-2-4-2-4-2.938-8.563-.689-4.587-.689-4.587-4.062-7.437v-4z" fill="#C8D0ED"/><path d="M235.652 244.902l5.537.01 5.749.025 5.83.014c4.744.012 9.488.028 14.232.049v2l5 1c7 6.311 7 6.311 7 9h2v3h3c2.516 3.925 4.913 7.826 7 12l3 1v4h2l1 4 5 1 .438 2.875c.784 4.36 2.708 4.403 6.562 6.125v3h6v2l3.5-.5c11.295-1.027 21.215-1.803 31.5 3.5v1c-6.479.204-12.957.328-19.438.438l-5.552.177c-15.205.193-21.268-2.122-29.01-15.615l-4-4-2.75-3.813c-3.11-4.295-3.11-4.295-7.188-7.562-3.319-2.962-5.325-5.212-7.75-8.813-5.462-7.936-8.29-9.303-17.996-9.527l-5.748-.139-2.987-.04a682.362 682.362 0 01-9.013-.21c-11.237-.542-11.237-.542-21.568 3.104l-2-1c1-4 1-4 4-7 5.52-1.22 11.02-1.115 16.652-1.098z" fill="#3F65B1"/><path d="M93.875 336.875l4.18-.008A60.6 60.6 0 01108 338v2l4.75 1.375C118 343 118 343 122 347v6l4.813-2.938c6.352-3.877 10.666-4.16 18.187-4.062v2l5 1c2.313 2.563 2.313 2.563 4 5a816.68 816.68 0 01-7-1.375l-3.938-.773L140 351v-2c-6.492.01-6.492.01-10 5l-4 2c1.497 4.403 1.497 4.403 5.188 4.32l3.812-.195c6.804-.32 6.804-.32 9 1.875v4l-4.05.48-5.262.707-5.239.668c-4.996.73-4.996.73-7.449 6.145-.833 6.562.352 9.352 5 14l-3.438.438c-3.37.174-3.37.174-4.562 1.562-9.673.49-9.673.49-12-3h12v-3h-3c-1.824-2.266-1.824-2.266-3.688-5.25l-1.886-2.953C109 373 109 373 109 369a141.488 141.488 0 015-5c2.089-6.266 1.41-11.974-1-18-7.522-4.44-14.214-5.153-22.813-5.563l-5.207-.253L81 340c2.19-4.38 8.618-3.133 12.875-3.125z" fill="#3A4E88"/><path d="M270 352h9v5l2.25-2c6.03-3.216 12.85-3.706 18.938-.125 6.26 7.34 3.925 21.948 3.812 31.125h-9l-.875-5.375c-1.184-9.588-1.184-9.588-4.125-18.625-6-.707-6-.707-9 3a147.06 147.06 0 00-.188 11.688l.042 3.283c.035 2.676.089 5.353.146 8.029h-11v-36z" fill="#D4DBF2"/><path d="M343 239c-2 4-2 4-5 6h-3l-2 4-3 1c.476 4.294.476 4.294 4 5l2 5 5 1c1.688 3.5 1.688 3.5 3 7l2 1v3l5 1 1-3h5a450.204 450.204 0 01-1.75 6.813c-.444 5.659 1.84 9.278 5.75 13.187l2.563 4.625c1.872 4.327 1.872 4.327 4.437 5.375.125 3.563.125 3.563 0 7h-5l-1 6 4-2c1.348 5.39-.124 6.292-4 10h-5v-3h-8c1.465-5.862 4.534-5.33 10-7 1.35-2.702 1.339-5.118 1.563-8.125L361 297h-3l-1 4c-3.4-4.533-5.893-8.733-8-14h-2l-.938-2.938c-.722-3.39-.722-3.39-4.062-4.062-6-8.353-6-8.353-6-11h-2c-5-5.476-5-5.476-5-8l-4-2c-2-4-2-4-2-9h2l1-3a711.538 711.538 0 018-4l3.313-2.813C340 238 340 238 343 239z" fill="#837A9C"/><path d="M353 173h1v11h2l.184 3.848c.173 3.57.356 7.14.546 10.71.166 3.345.3 6.692.383 10.04l.137 4.027.078 3.602c.442 3.469.442 3.469 5.672 4.773v1c-6 0-6 0-8-1-3.118 4.646-3.118 4.646-4 9l5 1-1 4-3.875-.75L347 234l-2 4-3.313.938c-4.282 1.234-5.625 2.924-8.687 6.062a195.126 195.126 0 01-7 3l-1 2h-2l1 5c-3 0-3 0-6-5v-3l-2-1c0-3 0-3 2.336-4.605l3.039-1.583 3.023-1.605C327 237 327 237 329 237l1-4h3l1-4 3 1c2.033-3.758 2.033-3.758 2.875-7.063C341 220 341 220 345 217a135.715 135.715 0 004-11l1.688-4.813c2.44-9.043 2.074-18.882 2.312-28.187z" fill="#494E89"/><path d="M169 171l2.898 2.973c5.027 3.71 7.562 3.693 13.727 3.464l4.977-.128c4.525-.224 4.525-.224 9.398-1.309 3.078-.082 6.159-.107 9.238-.098l5.42.01 5.655.025 5.712.014c4.659.012 9.317.028 13.975.049v2l4.115-.032c5.019-.034 10.037-.059 15.056-.078 2.176-.01 4.352-.024 6.527-.04 3.12-.025 6.24-.036 9.36-.045l5.698-.032C285 178 285 178 286 180l-3.353-.016c-30.231-.122-60.425.283-90.647 1.016l5.893.076c7.317.095 14.634.195 21.951.296 3.148.043 6.296.085 9.444.125 8.92.115 17.84.253 26.759.43 2.505.046 5.01.086 7.515.115 3.05.038 6.1.108 9.149.18l4.939.09c6.866 1.086 12.788 4.604 16.35 10.688 0 6 0 6-3 9l.188-3.688c-.263-6.046-1.761-8.599-7.188-11.312-3.45-.238-6.91-.354-10.368-.41l-3.194-.06c-3.484-.064-6.969-.113-10.454-.163l-7.247-.126c-6.358-.11-12.717-.209-19.076-.305-6.489-.1-12.977-.212-19.466-.323-12.731-.215-25.463-.418-38.195-.613v-2l-4-1 1-3h-3v-3l-2-1 1-4z" fill="#2A1858"/><path d="M222 354v5c-5.14 1.028-9.775 1.07-15 1 .36 5.532.36 5.532 5.688 6.625L218 368c5.807 2.445 6.674 3.512 7.5 9.813-.677 5.666-2.926 7.009-7.5 10.187-6.874 2.291-17.117 2.483-23-2 .063-4.188.063-4.188 1-8 6 0 6 0 8 1 3.33.365 6.663.7 10 1v-5l-5.875-.938c-5.875-.937-5.875-.937-8.125-2.062v-2h-3c-2.69-4.034-2.642-6.219-2-11 6.663-8.884 17.185-6.808 27-5z" fill="#A9B5E8"/><path d="M299 347c5.85 4.582 6.776 8.73 7 16h-2v11h-1l-.043-3.105-.144-4.082-.106-4.043c-.856-4.563-1.969-6.07-5.707-8.77-6.093-1.217-10.953-.785-16 3h-2v-5h-9v36h11l-1 3c-9.524.476-9.524.476-11-1l-.438-4.938c-.014-4.93-.014-4.93-2.562-7.062l-2 4c-6.81 7.567-12.576 10.606-23 9-4.75-2.313-4.75-2.313-8-5v-3c3 2 3 2 3 4 8.49 2.172 18.691.231 25-6l2-5 2-2c-.942-7.917-1.954-13.888-8.438-18.875-8.084-2.553-16.772-2.615-23.562 2.875a106.032 106.032 0 00-4 6h-2c.75-7.75.75-7.75 3-10h4l1-3c9.299-2.273 19.271-1.928 28 2v3l4-1 1-5h3v-2c.915.095 1.83.19 2.773.29 1.189.11 2.377.22 3.602.335l3.586.352c6.017.046 10.819-3.099 18.039-1.977z" fill="#43558A"/><path d="M223 258l-1 3h-2l1 3c3.775.563 3.775.563 8.375.625l5.172.203L240 265c3.542.112 7.084.236 10.625.375l4.79.148L259 266l1 3h-34v40h-3c-.73 1.977-1.394 3.98-2 6l-2 2-3-1v2l-10 2v2h6v1h-7v-2h-2v-2l-4.855.035-6.333.027-3.197.026c-4.726.015-8.964-.158-13.615-1.088v-1l5.117-.184 6.758-.253 3.36-.12c15.1.371 15.1.371 26.765-7.443.25-5.167.25-5.167 0-10h2l-.124-3.548c-.177-5.276-.34-10.551-.501-15.827l-.195-5.586-.157-5.312-.158-4.92c.163-4.582.422-5.807 5.135-5.807z" fill="#51508A"/><path d="M407 351c8.05-.438 8.05-.438 12 1 2.39 4.116 3.09 8.37 4 13l2 5v4h3l.313-4.625c.616-4.823 1.282-7.305 3.687-11.375l1.125-3.375c2.96-4.143 6.126-3.038 10.875-2.625-1.137 8.088-3.946 14.78-7.316 22.2-1.855 4.187-3.327 8.427-4.684 12.8-1 2-1 2-5.875 2.875-5.125-.875-5.125-.875-7-6.313l-.559-3.343c-.778-4.426-2.72-8.135-4.566-12.219a316.95 316.95 0 01-2.973-10.082c-.994-3.292-.994-3.292-4.027-6.918z" fill="#D2DBEF"/><path d="M218.772 127.757l5.002-.01 5.46.023h5.618c3.945.004 7.889.01 11.834.024 5.969.02 11.938.02 17.908.02 3.838.005 7.677.011 11.515.018l5.338.003c5.185.02 10.368.083 15.553.165l5.913.058 5.893.14 5.335.1c7.868 1.136 12.476 5.173 17.859 10.702l5 3v2l4 2c2.743 2.743 2.853 5.16 3.625 8.937.26 1.247.52 2.494.79 3.778C346 162 346 162 346 165h-2a871.471 871.471 0 01-3.516-7.195C334.84 147.138 325.078 137.415 313 135c-3.004-.988-6.004-1.987-9-3-3.746-.937-6.229-1.045-10.035-.879l-3.82.147-4.208.17c-14.578.502-29.149.706-43.735.74-2.297.006-4.593.016-6.89.03-3.255.018-6.51.022-9.765.022l-5.724.013c-4.124-.208-7.055-.657-10.823-2.243 3.014-3.014 5.566-2.247 9.772-2.243z" fill="#DAEBF5"/><path d="M268 260c4.743 2.371 8.134 5.392 12 9v2l4 2c3 3 3 3 4 7h2l2 5 4 2v4l4 2c8.824 4.824 8.824 4.824 10 6 2.974.089 5.95.107 8.926.098l5.54-.01 5.846-.026 5.811-.013c4.96-.012 9.918-.03 14.877-.049 4 0 4 0 7 2-.063 3.5-.063 3.5-1 7l-4 2 2-4-2.482.474c-7.134 1.067-14.38 1.045-21.58 1.276l-4.995.207-4.79.152-4.376.156C313 308 313 308 308 305v-2l-3-1c-4-4-4-4-4-6l-4-1c-8.885-6.109-13.234-12.467-18-22l-4-1c-3.184-3.942-5.107-7.267-7-12z" fill="#2881DF"/><path d="M202 350c2.874-.108 5.75-.186 8.625-.25l4.852-.14c4.814.415 6.978 1.154 10.523 4.39 0 4.476-.99 6.98-3 11l2 4 1-2h2l.438 5.25c.395 5.5.395 5.5 1.562 9.75l-7 2 1-2c.583-5.5.583-5.5 0-11-2.427-1.762-2.427-1.762-6-2-9.8-2.8-9.8-2.8-12-5l1-5c3.704-.37 7.169.014 10.875.313L221 359l1-5a572.519 572.519 0 00-9.688-.313l-5.449-.175c-5.396.541-6.58 1.375-9.863 5.488h-2c.611 5.582.611 5.582 2 11h3v2l5.875.938c5.875.937 5.875.937 8.125 2.062v5c-13.005.361-13.005.361-18-2-.75-5.063-.75-5.063-1-10l-4-1-.188 2.875C190 373 190 373 185 375c1.574-4.845 3.328-9.608 5.125-14.375l1.633-4.336L193 353h-8v-1h17v-2z" fill="#425794"/><path d="M336 348h11v3h3v2l4 2c2.763 2.763 2.332 4.522 2.375 8.375l.086 3.46C356 370 356 370 352 374l-2 4-14 1v-31z" fill="#35497E"/><path d="M294 214v3h-3v2h-4v2c-4.962.992-9.236 1.12-14.288 1.114h-5.763l-6.219-.016-6.368-.005c-5.581-.003-11.162-.013-16.744-.024-5.697-.01-11.395-.015-17.093-.02-11.175-.01-22.35-.028-33.525-.049 1-3 1-3 3-4a192.91 192.91 0 017.414-.098l4.492.01 4.719.025 4.742.014c3.878.012 7.755.028 11.633.049v-2h51v2a813.6 813.6 0 006.313-.875l3.55-.492C288.02 215.794 289.587 214 294 214z" fill="#CECFEE"/><path d="M274 121c20.582-.89 43.281-.923 60 13l2.773 2.07c15.314 12.377 19.67 29.107 19.227 47.93h-2l-.375-4.813c-.214-5.059-.214-5.059-2.625-8.187-2-4-2-4-2.875-8.5-.807-4.868-.807-4.868-5.125-8.5l-1-3.563c-.755-3.88-.755-3.88-5-6.437v-2l-4-1c-3.623-2.793-6.758-5.758-10-9-4.043-2.022-6.321-2.36-10.75-2.625l-3.547-.227L306 129v-2h-3v-3H181v-1l93-1v-1z" fill="#6773A9"/><path d="M171 157c4.362 1.454 3.798 3.794 5 8 12.68 4.227 28.945 2.108 42.164 2.07 4.007.009 8.013.02 12.02.032 6.25.018 12.5.026 18.75-.002 4.113-.019 8.226-.018 12.34.003 3.853.02 7.707.013 11.56-.023 10.032.094 15.506.158 22.166 7.92l4 1v2l3 1c2.782 4.392 3.432 7.907 3.438 13.063l.058 3.597c-.59 3.97-1.832 5.407-4.496 8.34l-3 5c-5.297 4-5.297 4-8 4v2l-4-1 4-3c7.695-7.31 11.652-12.053 11-23-2.315-7.434-7.435-13.478-15-16a162.159 162.159 0 00-6.626-.19l-4.176-.05-4.553-.041-4.735-.056c-5.032-.059-10.065-.111-15.098-.163-19.02-.2-38.037-.41-57.05-.969l-4.095-.113c-9.303-.297-9.303-.297-12.667-1.418h-3c-3.467-4.623-3.28-6.415-3-12z" fill="#853FCA"/><path d="M435 346h6v2l5-1c4.977 8.295 1.887 16.124-1 25l-4 4a311.892 311.892 0 00-3 8l-3 4-1 4c-5.056 2.528-11.492 2.068-16-1.125-3.789-5.446-5-8.032-5-14.875l-4 1c-.764 3.857-.764 3.857-1 8-1.535 6.138-5.394 6.616-11 9-5.94 1.35-10.194.763-16-1 5.389-2.694 9.744-1.92 15.664-1.582 4.018-.01 4.018-.01 5.336-5.418h3c.085-2.665.082-5.335 0-8l-2-1c2-2 2-2 5-2v-2h5l1 4 3 1c2 5 2 5 2 10 6.028 1.3 6.028 1.3 12 1 1.882-4.126 1.882-4.126 2.3-7.496.836-4.188 2.407-7.632 4.2-11.504 2.836-6.284 4.917-12.297 6.5-19-7.392-.562-7.392-.562-14 2l2-4h2l1-3z" fill="#2D3763"/><path d="M311 241l3 6c2.915 3.887 4.61 5.805 9 8 1.37 1.636 2.7 3.307 4 5l2.625 2.563C332 265 332 265 334 269h2a88.335 88.335 0 013.375 5.25c2.35 3.913 4.324 6.45 7.625 9.75v3h2c6.326 8.698 6.326 8.698 5 14-4-2-4-2-7-5l-2-1v-2l-4-2c-3-5-3-5-5-9h-2l-.813-2.875c-.988-3.757-.988-3.757-6.187-5.125v-3h-3l-1-4-4-2v-3l-4-2c-1-1-1-1-1-6l-4-2c-2.438-3.657-2.24-5.69-2-10 1-1 1-1 3-1z" fill="#C8CDE7"/><path d="M217 262h1c1.242 7.667 1.112 15.26 1.063 23l-.014 4.082c-.012 3.306-.028 6.612-.049 9.918h-2l-.313 2.625c-.824 4.047-1.779 8.421-5.687 10.375-6.1.305-12.206.278-18.313.313l-5.193.087-4.982.026-4.58.044c-4.81-.575-7.721-2.048-9.932-6.47a503.79 503.79 0 01-.125-13.125l-.012-3.672c.007-6.154.18-12.106 1.137-18.203l3 1c.369 2.696.369 2.696.371 6.266l.053 3.886c.009 2.716.014 5.433.015 8.149.02 1.288.038 2.575.057 3.902l.006 3.583c.612 3.946 1.505 5.574 4.498 8.214 3.195.72 3.195.72 6.777.559l3.994-.022 4.167-.1 4.154-.017c10.838.199 10.838.199 18.908-6.42.489-3.27.489-3.27.477-6.926l.093-4.103.055-4.284c.051-2.787.106-5.575.164-8.363l.053-3.747c.158-3.583.592-7.037 1.158-10.577z" fill="#1840B9"/><path d="M164 233l4 1c.485 2.82.485 2.82.467 6.644l.01 4.319-.043 4.709.029 9.766c-.009 5.16-.026 10.318-.048 15.478-.014 4.96.001 9.92.019 14.88l-.05 4.686.02 4.357-.016 3.833c.78 4.246 2.23 5.72 5.612 8.328 4.025.704 4.025.704 8.512.523l4.982-.035 5.193-.113 5.229-.043c7.752.401 7.752.401 15.084-1.332a160.565 160.565 0 003-7l2 1c0 5.46-.312 6.312-4 10-7.256 2.902-14.192 2.369-21.938 2.375l-4.693.074-4.521.012-4.125.025c-4.277-.558-6.35-1.865-9.723-4.486l-3-2v-2h-2v-75z" fill="#0D1263"/><path d="M180 131l2 9h2l1 18 5.695-.035 7.43-.028 3.75-.025 3.633-.01 3.332-.016c3.146.113 6.063.574 9.16 1.114 14.26 1.32 28.614 1.3 42.924 1.477 3.062.04 6.124.09 9.185.144l5.468.076C280 161 280 161 284 163c-13.673.023-27.346.04-41.02.052-6.347.005-12.696.012-19.044.023-6.12.011-12.241.017-18.362.02-2.34.002-4.682.005-7.023.01-3.266.008-6.532.009-9.799.009l-5.646.006C179 163 179 163 178 162c-.387-4.99-.47-9.998-.625-15l-.156-4.297-.133-4.078-.124-3.773C177.013 131 177.013 131 180 131z" fill="#8B7FA9"/><path d="M244.229 178.953c6.944-.098 13.888-.16 20.833-.203l5.429-.065 5.044-.013 4.387-.028c8.836.772 13.308 3.227 17.078 11.356.038 2.666.047 5.334 0 8l4 1c-9 14-9 14-18 14v-3l4-2-1-2c1.636-1.37 3.307-2.7 5-4 2.555-3.231 2.555-3.231 2-9-5.239-7.858-10.838-9.355-19.977-9.652l-5.926-.195c-15.156-.352-30.314-.538-45.472-.716l-10.395-.13c-8.41-.106-16.82-.208-25.23-.307v-1c5.274-1.06 10.42-1.204 15.793-1.316l5.979-.128 6.415-.119 3.269-.06c8.924-.165 17.848-.294 26.773-.424z" fill="#50328B"/><path d="M287.793 161.807C291 162 291 162 295 165l3.5 1.25c4.39 2.195 5.309 4.444 7.5 8.75l4 4c1.554 10.815-1 19.502-6 29l-2-2-2 1c1-5 1-5 4-8 .479-3.223.479-3.223.375-6.813l.023-3.644c-.477-4.242-1.33-8.51-5.398-10.543v-2l-5-1c-6.575-5.15-6.575-5.15-8-8-9.882-3.294-21.834-2.204-32.14-2.316l-4.86-.063c-5.083-.065-10.166-.125-15.25-.184l-10.387-.13c-8.454-.107-16.909-.209-25.363-.307v-1a367674.396 367674.396 0 0148.729-.573 151293.263 151293.263 0 0123.366-.275l5.216-.06 4.582-.054c2.635-.024 5.27-.097 7.9-.231z" fill="#B97FCC"/><path d="M185.875 162.281c9.881.65 19.723.892 29.625 1l4.769.057c6.578.077 13.157.146 19.735.214 4.853.052 9.706.11 14.559.167l4.46.04c21.521.259 21.521.259 28.977 3.241v1c-11.554.023-23.108.041-34.662.052-5.367.005-10.734.012-16.1.023-5.194.011-10.388.017-15.582.02-2.914.003-5.828.01-8.742.018-31.685.002-31.685.002-37.914-3.113 3.997-3.997 5.335-3.177 10.875-2.719z" fill="#EDAAF0"/><path d="M326 341v46l13.188-.438 4.133-.13 3.284-.116 3.349-.11c3.395-.163 3.395-.163 8.046-1.206-2.102 4.204-6.717 4.9-11.105 5.24-3.615.055-7.218.021-10.832-.053l-3.807-.04c-3.086-.036-6.17-.09-9.256-.147v-2l-3.027.035c-1.29.01-2.581.018-3.91.027l-3.903.036C309 388 309 388 308 387c-.226-5.192-.35-8.299 2-13 5.844-.866 6.633-.367 11 4 .725-4.606 1.147-9.078 1.246-13.738l.1-3.733c.061-2.58.119-5.161.172-7.742l.103-3.713.076-3.388C323.226 341 323.226 341 326 341z" fill="#546AAA"/><path d="M186.285 119.867l5.162-.006 5.616.014 5.818.008c15.667.04 31.33.265 46.994.555l3.353.059c11.618.21 23.189.523 34.772 1.503v1l-4.055-.027c-12.582-.08-25.164-.14-37.746-.18-6.47-.021-12.939-.05-19.408-.095a3547.48 3547.48 0 00-18.713-.078c-2.385-.007-4.77-.021-7.156-.043-3.33-.029-6.657-.033-9.986-.031l-5.754-.027L181 123l-1 4-4 4c-2.694 8.365-2.62 17.283-3 26h-2v7h-1c-.087-5.48-.14-10.958-.188-16.438l-.076-4.744-.029-4.502-.048-4.173L170 131l3-1 2-3h-6c4.371-7.609 9.021-7.127 17.285-7.133z" fill="#44508C"/><path d="M266 377c4.097 4.097 3.634 7.366 4 13 4.875.417 4.875.417 10 0l3-5h1c0 5 0 5-4 8-6.243.528-8.506.296-14-3l-1-5-1.938 2.188c-8.79 8.072-14.914 8.302-26.062 5.812v-3l-5-1-1-3c-5.302 1.458-9.37 4.087-14 7-3.878.97-7.08 1.2-11.063 1.25l-3.722.078C199 394 199 394 196 391l-2.688-2.313C191 386 191 386 191 380l5-2-1 8c8.507 3.165 17.204 3.677 25-1 4.293-2.415 5.89-3 11-3 1.37 1.636 2.7 3.307 4 5 5.413 3.925 11.574 3.802 18 3 4.46-2.191 5.979-3.972 9-8h2l2-5z" fill="#1D2C6A"/><path d="M224 257c5.908-.124 11.816-.214 17.725-.275 2.998-.037 5.996-.1 8.994-.164l5.703-.05c1.738-.025 3.477-.052 5.268-.079 7.094.935 8.483 5.529 11.31 11.568 1.584 4.434 1.584 4.434 6 5 3.407 4.171 6.227 8.38 9 13l3 3.5c3 3.5 3 3.5 6 8.5l3.688 3.625C304 305 304 305 304 308l5 2 1 3c-3.938-.25-3.938-.25-8-1l-1-4h-3v-2l-2.75-.188c-4.18-1.045-5.09-2.11-7.25-5.812l-.938-4.25c-2.207-9.87-8.098-18.607-16.062-24.75v-2h-2a666.628 666.628 0 01-6-8l-2-1v-2h-37v-1z" fill="#0C157F"/><path d="M208.75 352.813l3.672.019c3.277.154 6.36.551 9.578 1.168v5c-5.14 1.028-9.775 1.07-15 1 .357 5.564.357 5.564 5.813 6.563L218 368c4.671 4.671 4.417 5.741 4 12h-2v2h-5l-1-11-5.75-.25c-5.555-.242-5.998-.498-10.25-4.75-1.684-5.277-1.054-5.91 2-11 2.843-2.843 4.791-2.233 8.75-2.188z" fill="#DDE5F3"/><path d="M235.652 244.902l5.537.01 5.749.025 5.83.014c4.744.012 9.488.028 14.232.049v2l5 1c7 6.311 7 6.311 7 9h2v3l3 1h-5l-2-5c-3.054-1.213-3.054-1.213-6-2v-2c-6.726-.217-13.451-.414-20.178-.592-2.287-.063-4.575-.132-6.862-.207-3.29-.107-6.582-.193-9.874-.275l-3.088-.113c-5.549-.117-9.212.367-13.998 3.187l-2-1c1-4 1-4 4-7 5.52-1.22 11.02-1.115 16.652-1.098z" fill="#566099"/><path d="M281 293c5.834 2.805 8.052 5.307 11 11l4 4v2h2v2l5 2 1 1c11.774 1.084 23.559 1.31 35.375 1.563l5.734.13c4.63.106 9.26.208 13.891.307l-2 4 3 1h-4v-3h-5v3c-6.156.05-12.313.086-18.47.11-2.092.01-4.185.024-6.279.04-3.013.025-6.027.035-9.04.045l-5.49.032c-8.625-.415-11.02-2.056-15.791-9.352-2.064-3.074-4.285-5.938-6.618-8.813l-2.199-2.714c-2.25-2.651-2.25-2.651-6.113-5.348v-3z" fill="#2F389B"/><path d="M223 309h3c0 5.464-.263 5.94-3.75 9.688l-2.11 2.324c-7.052 6.55-17.862 4.315-26.827 4.3l-5.788.05-5.6.001-5.111.01c-7.604-.589-12.385-1.944-17.814-7.373l-1-5c6.75 5.75 6.75 5.75 9 8 4.429-.363 8.64-1.128 13-2 3.944-.07 7.87-.094 11.813-.063l3.255.014c2.644.012 5.288.03 7.932.049v2c2 .236 2 .236 3-1 4-2 4-2 10-2v-2l4-1a402.262 402.262 0 003-6z" fill="#1B1D69"/><path d="M181 124h122v3h3v2c-8.75.125-8.75.125-11-1-3.569-.153-7.12-.246-10.692-.297l-3.37-.06c-3.69-.064-7.38-.121-11.07-.178l-7.66-.13c-6.73-.115-13.46-.223-20.191-.33-6.864-.111-13.728-.227-20.591-.343-13.475-.226-26.95-.446-40.426-.662v-2z" fill="#8D9EDE"/><path d="M180 169c4.594.235 9.176.41 13.773.54l4.29.126c11.012.304 22.023.451 33.039.545l4.85.043c6.58.058 13.158.113 19.737.147 4.888.028 9.775.074 14.663.122l4.507.01 4.175.05 3.65.025c5.393.638 8.512 2.588 12.316 6.392l-1 2-3.32-1.964c-5.525-2.404-9.546-2.564-15.562-2.61l-3.216-.042a932.357 932.357 0 00-6.873-.055c-3.623-.017-7.244-.058-10.866-.105-8.988-.113-17.976-.184-26.964-.255-7.611-.063-15.222-.141-22.833-.24-3.575-.041-7.15-.058-10.726-.073a5920.33 5920.33 0 01-6.534-.082l-5.781-.044C177 173 177 173 175 169c2-1 2-1 5 0z" fill="#3520B9"/><path d="M98 331l3 3a758.29 758.29 0 0010 3l5 3-1 3a126.27 126.27 0 01-7-3v-2a1676.46 1676.46 0 00-10.688-.125c-1.007-.017-2.014-.034-3.052-.05-5.111-.035-8.449.25-13.26 2.175-.528 3.71-.721 6.976-.707 10.695l-.046 3.22a987.813 987.813 0 00-.06 10.21 3495.06 3495.06 0 01-.076 6.91c-.063 5.655-.095 11.31-.111 16.965h11v-17h7l2 4h-7v15H79l-.184-4.34-.254-5.598c-.08-1.844-.162-3.689-.246-5.59.196-4.179.196-4.179-1.316-5.472-.155-4.384-.232-8.74-.25-13.125l-.063-3.71C76.623 337.026 76.623 337.026 85 332c3.078-.258 3.078-.258 6.25-.125 5.308.808 5.308.808 6.75-.875z" fill="#293B76"/><path d="M177 214c1 3 1 3 1 5l4-4h4c-2 4-2 4-6 7h-2l-1 5-3 3c-1.332 3.996-1.22 7.61-1.316 11.824l-.127 5.303-.12 5.56-.13 5.596c-.107 4.572-.209 9.145-.307 13.717h-2l-1 7h-1l-.044-4.1c-.061-5.005-.135-10.01-.218-15.016-.034-2.17-.062-4.338-.084-6.507-.034-3.113-.086-6.225-.142-9.338l-.08-5.681c.116-4.551.116-4.551-3.432-6.358l2-1c2.31-4.876 2.31-4.876 2-10 6.197-7 6.197-7 9-7z" fill="#203686"/><path d="M213 256a251.362 251.362 0 011.125 24.75l.012 3.246c-.015 12.02-.015 12.02-1.137 17.004l-4 1v2c-5.58 2.79-10.96 2.29-17.063 2.25l-3.626.023c-8.931-.02-8.931-.02-12.311-2.273v-3l2.706-.076c4.036-.116 8.071-.239 12.107-.361l4.26-.12 4.072-.127 3.76-.11c3.13-.077 3.13-.077 6.095-1.206.502-4.169.502-4.169.477-9.25l.093-5.719c.02-2.01.038-4.02.055-6.031.048-3.917.105-7.833.164-11.75l.053-5.297C210.04 256 210.04 256 213 256z" fill="#4CCEF1"/><path d="M80 340h20v1H81l.875 9.188c.18 1.897.36 3.795.547 5.75.383 4.02.768 8.041 1.156 12.062l.547 5.688.508 5.261C85 383 85 383 85 385h3l2-15c9.5-.375 9.5-.375 14 3l2.438 4.625c2.163 4.943 2.163 4.943 7.562 5.375l1-3 1 4h3v3c-12.038.94-12.038.94-15.625-2.563L102 381l-1.688-3.75L99 374c-1.158-3.001-1.158-3.001-8-3v17H80v-48z" fill="#A5B2E4"/><path d="M169 171l2.898 2.973c5.027 3.71 7.562 3.693 13.727 3.464l4.977-.128c4.525-.224 4.525-.224 9.398-1.309 3.078-.082 6.159-.107 9.238-.098l5.42.01 5.655.025 5.712.014c4.659.012 9.317.028 13.975.049v2l4.115-.032c5.019-.034 10.037-.059 15.056-.078 2.176-.01 4.352-.024 6.527-.04 3.12-.025 6.24-.036 9.36-.045l5.698-.032C285 178 285 178 286 180l-3.353-.016c-22.743-.092-45.471-.002-68.21.453l-3.154.06c-13.18.215-13.18.215-26.326 1.116-5.704.445-9.685-.442-14.957-2.613v-3l-2-1 1-4z" fill="#3B1D50"/><path d="M293 292l8 4v2l4 2 4 5c4.954 2.477 8.052 2.143 13.578 1.977l5.703-.157 5.969-.195c2.005-.058 4.01-.116 6.016-.172 4.911-.142 9.823-.293 14.734-.453-2 5-2 5-4 6-6.058.25-12.124.185-18.188.188l-5.142.037-4.963.005-4.548.013c-8.33-.487-12.784-1.952-17.159-9.243l-3.625-3.563C294 296 294 296 293 292z" fill="#1540C7"/><path d="M178 173c19.326-.062 38.652-.064 57.979-.01 3.76.01 7.519.011 11.279.011 6.29.004 12.578.06 18.867.124l5.606-.008c11.624.175 21.793.915 29.269 10.883 1.19 4.762 1.064 9.108 1 14h-5c-1.125-4.563-1.125-4.563-2-10-2.465-7.395-6.53-10.128-14-12a187.062 187.062 0 00-10.029-.287l-3.012-.02c-2.151-.014-4.302-.023-6.453-.029-3.399-.008-6.798-.028-10.197-.052-8.435-.056-16.871-.092-25.307-.128-7.14-.03-14.279-.07-21.418-.12-3.358-.02-6.715-.028-10.073-.036l-6.13-.04-5.429-.023C179 175 179 175 178 173z" fill="#2B1780"/><path d="M261.519 112.76c5.089-.01 10.177-.042 15.266-.072 3.249-.007 6.498-.012 9.746-.016l4.592-.038 4.207.01 3.697-.011C302 113 302 113 305 116c-4.955 1.239-9.344 1.075-14.46 1.022l-3.223-.03c-3.517-.032-7.034-.073-10.551-.113l-7.315-.072c-6.418-.062-12.836-.132-19.254-.202-6.549-.07-13.097-.135-19.646-.2-12.85-.13-25.7-.265-38.551-.405v-2a2121.611 2121.611 0 0169.519-1.24z" fill="#2B324B"/><path d="M153 363h1l1 25c-10 0-10 0-12-2l-2.563 1.375c-4.557 2.154-7.444 2.309-12.437 1.625-4.063-3.5-4.063-3.5-7-7 3.171-1.586 5.7.033 9 1h4l-2-4v-6c4.04-1.347 7.768-1.061 12-1l-1 9c4.937 1.428 4.937 1.428 10 2v-20z" fill="#8899D7"/><path d="M93 375c3.75-.563 3.75-.563 8 0 2.25 4.188 2.25 4.188 4 9 2.577 4.857 3.393 4.948 9.063 5.438 4.848-.033 4.848-.033 7.937-2.438 5.444.444 5.444.444 8 3 4.054.471 8.058.841 12.125 1.125l3.441.262c2.811.212 5.622.414 8.434.613v1c-3.541.222-7.082.428-10.625.625l-5.977.352c-4.63.02-7.225-.299-11.398-1.977-3.835.165-3.835.165-7 2-8.423.62-11.018-.876-16.625-6.75-2.193-2.594-2.193-2.594-5.375-2.25l-2 4c-4.262 5.682-7.238 4.875-14 4l-2-3h14v-15z" fill="#192762"/><path d="M299 129c3.165-.136 6.333-.232 9.5-.313l5.344-.175c8.15.772 12.638 4.821 18.156 10.488l5 3v2l4 2c2.743 2.743 2.853 5.16 3.625 8.938.39 1.87.39 1.87.79 3.777C346 162 346 162 346 165h-2a871.471 871.471 0 01-3.516-7.195C334.84 147.138 325.078 137.415 313 135c-4.75-1.517-9.37-3.148-14-5v-1z" fill="#BFC3E5"/><path d="M215 250l1 3-2.393 1.589c-3.94 3.643-3.267 6.732-3.314 11.99l-.088 5.702-.018 5.969c-.023 2.005-.048 4.01-.076 6.016A1682.73 1682.73 0 00210 299c-4.458.054-8.916.094-13.375.125-1.271.017-2.542.034-3.852.05l-3.671.02-3.396.032C183 299 183 299 181 297c5.14-1.028 9.775-1.07 15-1v-2l3.938-.938c4.35-.531 4.35-.531 5.062-4.062.116-2.272.179-4.546.21-6.82l.087-4.059c.052-2.838.096-5.677.133-8.516l.093-4.05.06-3.735L206 259l3-1 1-4c2.563-2.25 2.563-2.25 5-4z" fill="#507BBE"/><path d="M187 225c-1 4-1 4-3.438 5.938-4.939 3.975-4.81 8.787-4.792 14.664l.005 4.421.037 4.602.002 4.625c-.198 7.49-.198 7.49 1.186 14.75a515 515 0 01.563 11.688l.13 3.283c.106 2.676.207 5.352.307 8.029h-3v-2h-2c-1.052-11.835-1.219-23.636-1.24-35.509-.01-3.342-.041-6.683-.072-10.024-.007-2.12-.012-4.241-.016-6.362l-.028-5.807L175 233l3-1 2-4c4-3 4-3 7-3z" fill="#3E6CAC"/><path d="M259 266c5.775 1.444 8.089 4.354 10.938 9.5 2.23 3.785 4.701 5.736 8.062 8.5l1 4 4 1c3 4 3 4 2 8l-4-3-2.512-1.844c-2.693-2.334-4.358-4.678-6.3-7.656-3.47-4.96-6.544-7.124-12.188-9.5l-1-3c-3.462-.292-3.462-.292-7.625-.063-8.6.31-15.442-.746-24.375-1.937v35h-1v-36l33-1v-2z" fill="#202768"/></svg>